<svg xmlns="http://www.w3.org/2000/svg" viewBox="4 0 281 103"><path fill="#eaeaea" d="M5 4.2L55 4.2L55 21.8L27.2 21.8L27.2 31.6L47.2 31.6L47.2 48.3L27.2 48.3L27.2 75L5 75L5 4.2ZM62.5 1L84.7 1L84.7 75L62.5 75L62.5 1ZM121.5 75.7Q113 75.7 106.2 72.2Q99.4 68.7 95.5 62.1Q91.7 55.6 91.7 46.8L91.7 46.8Q91.7 38 95.5 31.4Q99.4 24.9 106.2 21.4Q113 17.9 121.5 17.9L121.5 17.9Q130 17.9 136.8 21.4Q143.6 24.9 147.4 31.4Q151.3 38 151.3 46.8L151.3 46.8Q151.3 55.6 147.4 62.1Q143.6 68.7 136.8 72.2Q130 75.7 121.5 75.7L121.5 75.7ZM121.5 56.5Q124.6 56.5 126.7 54.0Q128.8 51.6 128.8 46.8L128.8 46.8Q128.8 42 126.7 39.5Q124.6 37.1 121.5 37.1L121.5 37.1Q118.4 37.1 116.3 39.5Q114.2 42 114.2 46.8L114.2 46.8Q114.2 51.6 116.3 54.0Q118.3 56.5 121.5 56.5L121.5 56.5ZM197.5 18.6L222 18.6L185.9 102L161.6 102L175.8 72.2L152.3 18.6L177 18.6L187.6 47.2L197.5 18.6ZM223 46.8Q223 37.9 226.1 31.3Q229.1 24.8 234.4 21.3Q239.7 17.9 246.3 17.9L246.3 17.9Q251.8 17.9 255.8 20.1Q259.7 22.4 261.8 26.3L261.8 26.3L261.8 1L284 1L284 75L261.8 75L261.8 67.3Q259.7 71.2 255.8 73.5Q251.8 75.7 246.3 75.7L246.3 75.7Q239.7 75.7 234.4 72.3Q229.1 68.8 226.1 62.3Q223 55.7 223 46.8L223 46.8ZM261.9 46.8Q261.9 42.3 259.6 39.8Q257.3 37.3 253.7 37.3L253.7 37.3Q250.1 37.3 247.8 39.8Q245.5 42.3 245.5 46.8L245.5 46.8Q245.5 51.3 247.8 53.8Q250.1 56.3 253.7 56.3L253.7 56.3Q257.3 56.3 259.6 53.8Q261.9 51.3 261.9 46.8L261.9 46.8Z"/></svg>