<svg width="206" height="22" viewBox="0 0 206 22" fill="none" xmlns="http://www.w3.org/2000/svg"> <path d="M39.8371 13.8982V4.51856C39.8371 3.09581 40.9964 1.9497 42.406 1.9497H43.4994C44.9222 1.9497 46.0814 3.10898 46.0814 4.51856V13.8982C46.0814 14.9257 45.4754 15.8084 44.5928 16.2168C44.5269 16.2431 44.4611 16.2695 44.3952 16.2958C44.2898 16.3353 44.1844 16.3748 44.0659 16.4012C44.0263 16.4012 43.9868 16.4144 43.9473 16.4144C43.8024 16.4407 43.6575 16.4671 43.4994 16.4671H42.406C42.2611 16.4671 42.103 16.4407 41.9581 16.4144C41.9186 16.4144 41.879 16.4144 41.8395 16.4012C41.7341 16.3748 41.6156 16.3353 41.5102 16.2958C41.4443 16.2695 41.3784 16.2431 41.2994 16.2168C40.4299 15.8084 39.8108 14.9257 39.8108 13.8982M14.491 14.0958H19.6946L20.3006 16.2168H13.8982L14.5042 14.0958H14.491ZM17.0994 4.94012L19.1545 12.1461H15.0443L17.0994 4.94012ZM94.4946 7.69341L97.6036 16.2168H94.4946V7.69341ZM103.229 16.2168H100.146L103.229 7.68024V16.2168ZM110.211 14.0958H115.414L116.007 16.2168H109.605L110.211 14.0958ZM112.806 4.94012L114.861 12.1461H110.751L112.806 4.94012ZM122.146 10.7102H123.951L127.455 16.2299H122.146V10.7102ZM122.146 2.18683H125.822C127.244 2.18683 128.39 3.34611 128.39 4.75569V6.17844C128.39 7.6012 127.244 8.7473 125.822 8.7473H122.146V2.17365V2.18683ZM155.937 7.69341L159.046 16.2168H155.937V7.69341ZM164.671 16.2168H161.588L164.671 7.68024V16.2168ZM171.653 14.0958H176.856L177.449 16.2168H171.047L171.653 14.0958ZM174.248 4.94012L176.303 12.1461H172.193L174.248 4.94012ZM44.2635 18.4695H205.39V16.2299H197.157V10.1832H205.39V8.24671H197.157V2.2H205.417V0.250299H195.141V16.2299H191.189C191.611 15.5449 191.848 14.7545 191.848 13.9114V13.7533V12.7126V8.5497H187.04V10.4862H189.832V12.6994V13.9114C189.832 14.794 189.384 15.5844 188.699 16.0455C188.594 16.1114 188.475 16.1772 188.37 16.2299C188.278 16.2826 188.172 16.3222 188.067 16.3485C188.028 16.3485 187.988 16.3617 187.962 16.3748C187.883 16.4012 187.804 16.4144 187.725 16.4275C187.698 16.4275 187.659 16.4407 187.619 16.4539C187.501 16.4671 187.382 16.4802 187.263 16.4802H186.157C186.038 16.4802 185.92 16.4802 185.814 16.4539C185.775 16.4539 185.748 16.4407 185.709 16.4275C185.63 16.4144 185.551 16.388 185.472 16.3748C185.432 16.3748 185.406 16.3617 185.366 16.3485C185.261 16.3222 185.169 16.2826 185.063 16.2299C184.945 16.1772 184.84 16.1114 184.734 16.0455C184.049 15.5844 183.588 14.794 183.588 13.9114V11.7772V4.53174C183.588 3.10898 184.747 1.96287 186.157 1.96287H187.263C188.673 1.96287 189.832 3.12216 189.832 4.53174V5.74371H191.848V4.54491C191.848 2.05509 189.819 0.0263473 187.342 0.0263473H186.091C183.601 0.0263473 181.572 2.05509 181.572 4.54491V11.7904V13.9245C181.572 14.7677 181.81 15.5713 182.218 16.2431H179.517L174.814 0.263473H173.655L168.978 16.2431H166.686V0.263473H165.487L160.297 14.3066L155.159 0.408383L155.107 0.263473H153.908V16.2431H140.984V10.1964H147.677V8.25988H140.984V2.21317H149.244V0.250299H138.969V16.2299H135.425V0.250299H133.41V16.2299H129.813L126.296 10.697C128.601 10.4862 130.419 8.5497 130.419 6.19162V4.76886C130.419 2.27904 128.39 0.250299 125.901 0.250299H120.144V16.2299H118.089L113.372 0.250299H112.213L107.537 16.2299H105.244V0.250299H104.046L98.8551 14.2934L93.7305 0.39521L93.6778 0.250299H92.479V16.2299H86.8934C87.3281 15.5449 87.5784 14.7545 87.5784 13.9114V13.3844C87.5784 10.0383 85.0754 9.0503 82.8754 8.19401C80.9784 7.44311 79.3186 6.81078 79.3186 4.86108V4.53174C79.3186 3.10898 80.4778 1.96287 81.8874 1.96287H82.8623C84.285 1.96287 85.4443 3.12216 85.4443 4.53174V5.49341L87.4599 5.50659V4.53174C87.4599 2.02874 85.4311 0 82.9413 0H81.8215C79.3317 0 77.303 2.02874 77.303 4.51856V4.8479C77.303 8.18084 79.7533 9.08982 81.9138 9.90659C83.8635 10.6443 85.5497 11.2635 85.5497 13.3844V13.9114C85.5497 14.9257 84.891 15.8216 83.982 16.2299C83.9162 16.2563 83.8503 16.2826 83.7712 16.309C83.6527 16.3485 83.5473 16.388 83.4287 16.4144C83.3892 16.4144 83.3497 16.4144 83.3102 16.4275C83.1653 16.4539 83.0072 16.4802 82.8491 16.4802H81.7557C81.5976 16.4802 81.4395 16.4539 81.2946 16.4275C81.2551 16.4275 81.2156 16.4275 81.176 16.4144C81.0575 16.388 80.9389 16.3485 80.8335 16.309C80.7677 16.2826 80.7018 16.2563 80.6359 16.2299C79.7138 15.8084 79.0683 14.9257 79.0683 13.9114V12.6994H77.0527V13.9114C77.0527 14.7545 77.3162 15.5449 77.7377 16.2299H66.7377V10.1832H74.9976V8.24671H66.7377V2.2H74.9976V0.250299H64.7222V16.2299H60.7701C61.1784 15.5449 61.4287 14.7545 61.4287 13.9114V0.250299H59.4132V13.8982C59.4132 14.9257 58.794 15.8084 57.9245 16.2168C57.9245 16.2168 57.7928 16.2695 57.7269 16.2958C57.6216 16.3353 57.5162 16.3748 57.4108 16.4012C57.3713 16.4012 57.3317 16.4144 57.2922 16.4144C57.1473 16.4407 57.0024 16.4671 56.8443 16.4671H55.7377C55.5928 16.4671 55.4479 16.4407 55.2898 16.4144C55.2503 16.4144 55.2108 16.4144 55.1713 16.4012C55.0527 16.3748 54.9473 16.3353 54.8551 16.2958C54.776 16.2695 54.7102 16.2431 54.6443 16.2168C53.7617 15.8084 53.1557 14.9257 53.1557 13.8982V0.250299H51.1401V13.8982C51.1401 14.7413 51.3772 15.5449 51.7856 16.2168H47.4383C47.8467 15.5317 48.0838 14.7413 48.0838 13.8982V4.51856C48.097 2.02874 46.0683 0 43.5784 0H42.3269C39.8371 0 37.8084 2.02874 37.8084 4.51856V13.8982C37.8084 14.7413 38.0455 15.5449 38.4539 16.2168H34.3569C34.7653 15.5317 35.0156 14.7413 35.0156 13.8982V12.6862H33V13.8982C33 14.9257 32.394 15.8084 31.5245 16.2168C31.4587 16.2431 31.3928 16.2695 31.3138 16.2958C31.2084 16.3353 31.103 16.3748 30.9844 16.4012C30.9449 16.4012 30.9054 16.4144 30.8659 16.4144C30.721 16.4407 30.576 16.4671 30.418 16.4671H29.3245C29.1796 16.4671 29.0216 16.4407 28.8766 16.4144C28.8371 16.4144 28.7976 16.4144 28.7581 16.4012C28.6395 16.3748 28.5341 16.3353 28.4287 16.2958C28.3629 16.2695 28.297 16.2431 28.2311 16.2168C27.3617 15.8084 26.7425 14.9257 26.7425 13.8982V4.51856C26.7425 3.09581 27.9018 1.9497 29.3114 1.9497H30.4048C31.8275 1.9497 32.9737 3.10898 32.9737 4.51856V5.94132H34.9892V4.53174C35.0156 2.02874 32.9868 0 30.497 0H29.2455C26.7557 0 24.7269 2.02874 24.7269 4.51856V13.8982C24.7269 14.7413 24.9641 15.5449 25.3725 16.2168H22.3425L17.6659 0.250299H16.5066L11.8299 16.2299H8.93174C9.34012 15.5449 9.57724 14.7545 9.57724 13.9114V0.250299H7.56168V13.8982C7.56168 14.9257 6.95569 15.8084 6.07305 16.2168C6.00719 16.2431 5.94132 16.2695 5.86227 16.2958C5.75689 16.3353 5.6515 16.3748 5.53293 16.4012C5.49341 16.4012 5.45389 16.4144 5.41437 16.4144C5.26946 16.4407 5.12455 16.4671 4.96647 16.4671H4.61078C4.46587 16.4671 4.30778 16.4407 4.16287 16.4144C4.12335 16.4144 4.08383 16.4144 4.04431 16.4012C3.92575 16.3748 3.82036 16.3353 3.71497 16.2958C3.6491 16.2695 3.58323 16.2431 3.50419 16.2168C2.63473 15.8084 2.01557 14.9257 2.01557 13.8982V12.6862H0V13.8982C0 16.3222 2.10778 18.3509 4.51856 18.4563H42.1557L43.7234 22H45.7916L44.2108 18.4563L44.2635 18.4695Z" fill="#eaeaea"></path> </svg>