<svg xmlns="http://www.w3.org/2000/svg" viewBox="0 0 512 50"><path fill="#eaeaea" d="M29.33.825v32.282L9.51.825H0V49.17h9.083V17.64l19.515 31.53h9.808V.826M44.418.825V49.17h36.818v-8.144H54.192v-13.16h24.305v-8.147H54.192V9.003h26.124V.824M137.94.825l-7.43 33.77-8.488-33.77h-11.62l-8.846 33.208L94.25.825H84.25L95.805 49.17h10.604l9.605-36.144 9.642 36.145h10.37L147.777.826M163.264.825v8.18h14.364V49.17h9.774V9.005h14.33V.824M207.696.825V49.17h36.822v-8.144h-27.044v-13.16h24.303v-8.147h-24.303V9.003h26.12V.824M279.85.825v32.282L260.04.825h-9.51V49.17h9.084V17.64l19.515 31.53h9.805V.826M304.69 9v32.026h7.293c2.735 0 4.697-.153 5.91-.468 1.587-.394 2.904-1.062 3.95-2.01 1.045-.943 1.898-2.502 2.554-4.66.662-2.165.99-5.12.99-8.86 0-3.734-.328-6.607-.99-8.61-.655-2-1.58-3.562-2.77-4.677-1.187-1.12-2.692-1.878-4.523-2.278-1.363-.31-4.04-.463-8.02-.463h-4.394zM294.915.82h17.86c4.032 0 7.1.31 9.214.928 2.843.834 5.27 2.32 7.297 4.45 2.026 2.134 3.566 4.744 4.626 7.83 1.054 3.09 1.58 6.903 1.58 11.427 0 3.987-.495 7.417-1.48 10.294-1.214 3.517-2.94 6.362-5.19 8.54-1.69 1.647-3.98 2.938-6.865 3.863-2.154.678-5.04 1.02-8.647 1.02h-18.394V.822zM339.556.825V49.17h36.825v-8.144h-27.046v-13.16h24.303v-8.147h-24.303V9.003h26.12V.824M411.63.825v32.282L391.82.825h-9.51V49.17h9.078V17.64l19.512 31.53h9.81V.826M457.36 31.396l9.475 3c-1.454 5.282-3.867 9.2-7.242 11.76-3.385 2.56-7.67 3.844-12.864 3.844-6.43 0-11.712-2.196-15.855-6.582-4.135-4.39-6.207-10.383-6.207-17.99 0-8.05 2.08-14.3 6.243-18.75C435.073 2.222 440.54 0 447.32 0c5.92 0 10.735 1.748 14.435 5.246 2.2 2.06 3.844 5.034 4.95 8.9l-9.675 2.31c-.572-2.506-1.77-4.49-3.582-5.937-1.816-1.458-4.025-2.18-6.624-2.18-3.585 0-6.497 1.284-8.734 3.862-2.23 2.568-3.354 6.735-3.354 12.496 0 6.118 1.104 10.464 3.31 13.064 2.2 2.59 5.06 3.89 8.587 3.89 2.594 0 4.826-.827 6.697-2.474 1.873-1.65 3.218-4.243 4.03-7.782M500.74.825L489.583 19.95 478.188.825h-11.46l17.735 27.998V49.17h9.737V28.89L512 .825"/></svg>